<svg width="120" height="37" viewBox="0 0 120 37" fill="none" xmlns="http://www.w3.org/2000/svg">
<path d="M75.6529 8.53735C76.251 8.53735 76.4007 9.1354 76.1017 9.50924C75.5036 10.2195 73.5969 10.1448 72.4007 13.0233C69.9334 19.1167 67.3915 25.3598 63.5784 30.743C60.8869 34.5935 58.1204 36.5 55.2419 36.5C53.9709 36.5 52.8869 36.1261 52.1392 35.3785C50.0832 33.3598 51.9896 30.6308 54.1578 30.6308C54.4568 30.6308 54.7185 30.6683 55.0175 30.7804C56.3259 31.2664 57.7093 32.9486 59.0925 32.9486C60.4757 32.9484 62.3823 31.0045 63.8028 28.1635L55.4289 12.201C54.3074 10.0702 52.6624 11.0047 52.6624 9.99541C52.6624 9.65896 52.9617 9.39702 53.2607 9.32225C54.9429 8.83631 57.0364 8.53735 58.7933 8.53735C60.3634 8.53736 61.7841 8.83668 62.5691 10.332L67.9148 20.7245C68.8867 18.7806 70.8678 13.7335 70.8678 11.7148C70.8677 9.54681 68.9617 10.1073 68.4383 9.50924C68.1393 9.13542 68.2886 8.5374 68.8867 8.53735H75.6529Z" fill="url(#paint0_linear_362_875)"/>
<path fill-rule="evenodd" clip-rule="evenodd" d="M13.472 0.5C31.4907 0.500043 31.4533 28.4626 13.472 28.4627C-4.50935 28.4627 -4.47197 0.5 13.472 0.5ZM7.22617 13.0754C6.89819 19.8481 8.97941 27.1542 13.472 27.1542C14.4414 27.1542 15.7516 26.3419 16.4914 25.7144C17.0319 24.5755 17.5052 23.0614 15.8873 21.4475C13.43 18.9964 8.8616 16.8016 7.22617 13.0754ZM13.472 1.77107C11.4632 1.77107 9.80171 3.23536 8.89169 5.4525C8.66197 6.19867 8.81707 6.69283 9.01012 7.39895C10.1287 11.4898 16.5325 14.8004 17.2959 19.0122C17.7173 21.3368 17.6721 22.3387 18.0808 23.1785C21.1454 16.0363 19.6094 1.77113 13.472 1.77107Z" fill="url(#paint1_linear_362_875)"/>
<path fill-rule="evenodd" clip-rule="evenodd" d="M46.831 0.5C50.5692 0.500048 50.569 2.36924 50.569 5.2851V23.528C50.569 26.7055 50.8016 25.8833 51.3997 26.4815C51.6988 26.7805 51.5121 27.2665 50.9514 27.5656C49.8673 28.1263 50.1205 28.4627 48.5504 28.4627C46.6065 28.4626 45.1861 27.9766 44.3263 27.042C42.8683 27.9392 40.9989 28.4627 39.0176 28.4627C24.7374 28.4625 24.6253 7.97698 39.0176 7.97683C40.6999 7.97683 42.1955 8.23837 43.4666 8.76173L43.2422 5.2851C43.0553 2.10752 41.186 2.92972 40.5879 2.33159C40.2889 2.03248 40.4386 1.39704 41.0366 1.2849C43.5786 0.761562 45.4479 0.5 46.831 0.5ZM39.803 9.13571C33.0366 9.13571 33.2981 25.995 42.382 25.9953C42.7558 25.9953 43.2045 25.9204 43.5783 25.8083C43.3541 25.2102 43.2422 24.5747 43.2422 23.7897V13.659C43.2422 10.7806 41.8963 9.13578 39.803 9.13571Z" fill="url(#paint2_linear_362_875)"/>
<path d="M96.3124 6.33179C97.7703 6.33179 98.7726 7.22901 98.7726 8.72434C98.7726 9.95794 97.8753 11.7148 97.3145 12.8737L90.0247 28.1635C89.9499 28.3878 89.6511 28.4627 89.3894 28.4627C89.1277 28.4627 88.8662 28.3878 88.7541 28.1635L80.3801 12.201C79.2587 10.0702 77.6137 11.0047 77.6136 9.99541C77.6136 9.65896 77.9129 9.39702 78.212 9.32225C79.8942 8.83631 81.9877 8.53735 83.7446 8.53735C85.3147 8.53736 86.7354 8.83668 87.5204 10.332L92.6042 20.1635C93.3519 18.4813 94.5858 16.4627 94.5859 14.6683C94.5859 12.5749 92.9409 10.7057 92.9408 8.94872C92.9408 7.41607 94.6302 6.33187 96.3124 6.33179Z" fill="url(#paint3_linear_362_875)"/>
<path fill-rule="evenodd" clip-rule="evenodd" d="M109.834 7.93943C116.488 7.93944 117.132 10.5187 117.132 17.4718V23.528C117.132 26.7055 119.188 25.8833 119.786 26.4815C120.085 26.7805 119.898 27.2665 119.338 27.5656C118.254 28.1263 116.684 28.4626 115.114 28.4627C112.422 28.4627 112.526 27.6027 111.741 25.8083C110.245 27.4532 107.666 28.4627 104.937 28.4627C101.124 28.4626 98.6194 26.4812 98.6194 23.4158C98.6197 16.2758 112.302 17.7336 112.264 12.2758C112.264 10.4814 111.068 9.06091 109.572 9.06091C107.442 9.06101 106.731 12.3877 105.535 14.07C105.049 14.7429 104.339 15.1166 103.404 15.1166C101.685 15.1165 100.227 13.8458 100.227 12.2384C100.227 9.73369 104.264 7.93943 109.834 7.93943ZM112.264 15.0797C110.208 17.6964 105.461 18.0702 105.461 22.7431C105.461 24.8364 106.395 25.9952 108.077 25.9953C109.273 25.9953 110.657 25.3971 111.367 24.5746C110.881 21.771 111.928 17.9581 112.264 15.0797Z" fill="url(#paint4_linear_362_875)"/>
<defs>
<linearGradient id="paint0_linear_362_875" x1="0" y1="18.5" x2="119.928" y2="18.5" gradientUnits="userSpaceOnUse">
<stop stop-color="#A68DCE"/>
<stop offset="1" stop-color="#E1D7F3"/>
</linearGradient>
<linearGradient id="paint1_linear_362_875" x1="0" y1="18.5" x2="119.928" y2="18.5" gradientUnits="userSpaceOnUse">
<stop stop-color="#A68DCE"/>
<stop offset="1" stop-color="#E1D7F3"/>
</linearGradient>
<linearGradient id="paint2_linear_362_875" x1="0" y1="18.5" x2="119.928" y2="18.5" gradientUnits="userSpaceOnUse">
<stop stop-color="#A68DCE"/>
<stop offset="1" stop-color="#E1D7F3"/>
</linearGradient>
<linearGradient id="paint3_linear_362_875" x1="0" y1="18.5" x2="119.928" y2="18.5" gradientUnits="userSpaceOnUse">
<stop stop-color="#A68DCE"/>
<stop offset="1" stop-color="#E1D7F3"/>
</linearGradient>
<linearGradient id="paint4_linear_362_875" x1="0" y1="18.5" x2="119.928" y2="18.5" gradientUnits="userSpaceOnUse">
<stop stop-color="#A68DCE"/>
<stop offset="1" stop-color="#E1D7F3"/>
</linearGradient>
</defs>
</svg>
