<svg width="264" height="79" viewBox="0 0 264 79" fill="none" xmlns="http://www.w3.org/2000/svg">
<path d="M165.944 17.6299C167.256 17.6299 167.585 18.9417 166.929 19.7617C165.617 21.3197 161.435 21.1559 158.811 27.4697C153.399 40.8357 147.823 54.5299 139.459 66.3379C133.555 74.7838 127.487 78.9658 121.173 78.9658C118.385 78.9658 116.007 78.1458 114.367 76.5059C109.857 72.0779 114.039 66.0918 118.795 66.0918C119.451 66.0918 120.025 66.174 120.681 66.4199C123.551 67.4859 126.585 71.1758 129.619 71.1758C132.653 71.1754 136.835 66.9114 139.951 60.6797L121.583 25.666C119.123 20.9921 115.515 23.0419 115.515 20.8281C115.515 20.0901 116.171 19.5156 116.827 19.3516C120.517 18.2857 125.109 17.6299 128.963 17.6299C132.407 17.6299 135.523 18.2865 137.245 21.5664L148.971 44.3623C151.103 40.0983 155.448 29.0276 155.448 24.5996C155.448 19.8441 151.267 21.0736 150.119 19.7617C149.463 18.9418 149.791 17.63 151.103 17.6299H165.944Z" fill="url(#paint0_linear_362_1276)"/>
<path fill-rule="evenodd" clip-rule="evenodd" d="M29.5508 0C69.0746 9.39543e-05 68.9926 61.3358 29.5508 61.3359C-9.89124 61.3359 -9.80924 0 29.5508 0ZM15.8506 27.584C15.1311 42.4401 19.6963 58.4658 29.5508 58.4658C31.6772 58.4658 34.551 56.6841 36.1738 55.3076C37.3594 52.8095 38.3977 49.4883 34.8486 45.9482C29.4586 40.5718 19.4379 35.7574 15.8506 27.584ZM29.5508 2.78809C25.1445 2.78809 21.5 6 19.5039 10.8633C19 12.5 19.3402 13.5839 19.7636 15.1328C22.2171 24.1062 36.2639 31.3678 37.9385 40.6064C38.8627 45.7055 38.7636 47.9031 39.6601 49.7451C46.3824 34.0788 43.0132 2.78823 29.5508 2.78809Z" fill="url(#paint1_linear_362_1276)"/>
<path fill-rule="evenodd" clip-rule="evenodd" d="M102.724 0C110.923 0.000104268 110.923 4.10017 110.923 10.4961V50.5117C110.923 57.4817 111.433 55.6782 112.745 56.9902C113.401 57.6462 112.992 58.7122 111.762 59.3682C109.384 60.5982 109.939 61.3359 106.495 61.3359C102.231 61.3359 99.1154 60.2697 97.2295 58.2197C94.0315 60.1877 89.9309 61.3359 85.5849 61.3359C54.2614 61.3356 54.0154 16.4007 85.5849 16.4004C89.2749 16.4004 92.5557 16.9741 95.3437 18.1221L94.8515 10.4961C94.4415 3.5261 90.3413 5.32958 89.0293 4.01758C88.3736 3.36148 88.7018 1.96765 90.0136 1.72168C95.5894 0.573735 99.6897 0 102.724 0ZM87.3076 18.9424C72.4657 18.9424 73.0393 55.9232 92.9648 55.9238C93.7847 55.9238 94.7689 55.7596 95.5888 55.5137C95.097 54.2018 94.8515 52.8077 94.8515 51.0859V28.8643C94.8515 22.5504 91.8994 18.9425 87.3076 18.9424Z" fill="url(#paint2_linear_362_1276)"/>
<path d="M211.261 12.792C214.459 12.792 216.657 14.76 216.657 18.04C216.657 20.746 214.689 24.5996 213.459 27.1416L197.469 60.6797C197.305 61.1717 196.649 61.3359 196.075 61.3359C195.501 61.3359 194.928 61.1717 194.682 60.6797L176.313 25.666C173.854 20.9921 170.245 23.0419 170.245 20.8281C170.245 20.0901 170.902 19.5156 171.558 19.3516C175.248 18.2857 179.84 17.6299 183.693 17.6299C187.137 17.6299 190.254 18.2865 191.976 21.5664L203.127 43.1318C204.767 39.4419 207.474 35.0141 207.474 31.0781C207.474 26.4862 203.865 22.3862 203.865 18.5322C203.865 15.1704 207.571 12.7922 211.261 12.792Z" fill="url(#paint3_linear_362_1276)"/>
<path fill-rule="evenodd" clip-rule="evenodd" d="M240.921 16.3184C255.517 16.3184 256.929 21.9759 256.929 37.2275V50.5117C256.929 57.4817 261.439 55.6782 262.751 56.9902C263.407 57.6462 262.996 58.7122 261.767 59.3682C259.389 60.5981 255.945 61.3359 252.501 61.3359C246.597 61.3359 246.825 59.4497 245.103 55.5137C241.823 59.1217 236.165 61.3359 230.179 61.3359C221.815 61.3359 216.321 56.9896 216.321 50.2656C216.322 34.6041 246.333 37.8019 246.251 25.8301C246.251 21.8941 243.627 18.7783 240.347 18.7783C235.673 18.7785 234.115 26.0755 231.491 29.7656C230.425 31.2416 228.866 32.0615 226.816 32.0615C223.045 32.0613 219.847 29.2739 219.847 25.748C219.847 20.254 228.703 16.3184 240.921 16.3184ZM246.251 31.9805C241.741 37.7203 231.327 38.5402 231.327 48.79C231.327 53.3818 233.377 55.9236 237.066 55.9238C239.69 55.9238 242.725 54.6116 244.283 52.8076C243.217 46.6578 245.513 38.2943 246.251 31.9805Z" fill="url(#paint4_linear_362_1276)"/>
<defs>
<linearGradient id="paint0_linear_362_1276" x1="0" y1="39.4829" x2="263.061" y2="39.4829" gradientUnits="userSpaceOnUse">
<stop stop-color="#55286F"/>
<stop offset="0.5" stop-color="#9D81B1"/>
<stop offset="1" stop-color="#E5D9F2"/>
</linearGradient>
<linearGradient id="paint1_linear_362_1276" x1="0" y1="39.4829" x2="263.061" y2="39.4829" gradientUnits="userSpaceOnUse">
<stop stop-color="#55286F"/>
<stop offset="0.5" stop-color="#9D81B1"/>
<stop offset="1" stop-color="#E5D9F2"/>
</linearGradient>
<linearGradient id="paint2_linear_362_1276" x1="0" y1="39.4829" x2="263.061" y2="39.4829" gradientUnits="userSpaceOnUse">
<stop stop-color="#55286F"/>
<stop offset="0.5" stop-color="#9D81B1"/>
<stop offset="1" stop-color="#E5D9F2"/>
</linearGradient>
<linearGradient id="paint3_linear_362_1276" x1="0" y1="39.4829" x2="263.061" y2="39.4829" gradientUnits="userSpaceOnUse">
<stop stop-color="#55286F"/>
<stop offset="0.5" stop-color="#9D81B1"/>
<stop offset="1" stop-color="#E5D9F2"/>
</linearGradient>
<linearGradient id="paint4_linear_362_1276" x1="0" y1="39.4829" x2="263.061" y2="39.4829" gradientUnits="userSpaceOnUse">
<stop stop-color="#55286F"/>
<stop offset="0.5" stop-color="#9D81B1"/>
<stop offset="1" stop-color="#E5D9F2"/>
</linearGradient>
</defs>
</svg>
