<svg width="120" height="120" viewBox="0 0 120 120" fill="none" xmlns="http://www.w3.org/2000/svg">
<rect width="120" height="120" rx="60" fill="#E1D7F3"/>
<path fill-rule="evenodd" clip-rule="evenodd" d="M59.9687 29.332C99.4926 29.3321 99.4106 90.6679 59.9687 90.668C20.5267 90.668 20.6087 29.332 59.9687 29.332ZM46.2685 56.916C45.5491 71.7721 50.1143 87.7979 59.9687 87.7979C62.0952 87.7978 64.9689 86.0162 66.5918 84.6396C67.7774 82.1415 68.8156 78.8204 65.2666 75.2803C59.8765 69.9039 49.8558 65.0894 46.2685 56.916ZM59.9687 32.1201C55.5625 32.1201 51.918 35.332 49.9219 40.1953C49.418 41.832 49.7582 42.916 50.1816 44.4648C52.6351 53.4382 66.6819 60.6999 68.3564 69.9385C69.2807 75.0375 69.1816 77.2352 70.0781 79.0771C76.8004 63.4108 73.4312 32.1203 59.9687 32.1201Z" fill="#55286F"/>
</svg>
