<svg width="766" height="900" viewBox="0 0 766 900" fill="none" xmlns="http://www.w3.org/2000/svg">
<g filter="url(#filter0_n_362_749)">
<path d="M449.781 -268.264C388.193 -242.141 339.943 -186.351 335.684 -127.564C330.047 -49.7095 397.607 14.1965 404.67 91.1521C413.197 184.068 333.109 270.092 249.794 333.699C166.484 397.307 70.588 455.716 23.9616 542.948C-38.4972 659.795 28.9991 840.197 140.54 911.314C270.078 993.908 505.459 926.861 652.077 798.365C759.486 704.23 768.273 539.367 895.693 468.22C959.065 432.835 1036 430.811 1107.72 415.826C1215.8 393.243 1321.4 334.294 1373.2 245.96C1425 157.625 1409.29 40.1124 1322.49 -13.2551C1196.64 -90.6232 975.3 -21.1397 889.487 -133.44C871.109 -157.49 855.74 -182.97 838.564 -207.744C736.155 -355.455 574.774 -321.278 449.781 -268.264Z" fill="url(#paint0_linear_362_749)" fill-opacity="0.3"/>
<path d="M449.859 -268.08C512.346 -294.583 583.906 -316.367 652.632 -313.076C721.346 -309.786 787.234 -281.43 838.4 -207.63C855.565 -182.872 870.948 -157.372 889.328 -133.319C910.814 -105.2 940.78 -88.4679 975.589 -77.9731C1010.4 -67.4792 1050.06 -63.2178 1090.96 -60.0489C1131.86 -56.8795 1174 -54.8024 1213.77 -48.6834C1253.55 -42.5647 1290.95 -32.4067 1322.38 -13.0848C1409.07 40.2126 1424.78 157.595 1373.02 245.859C1321.26 334.128 1215.72 393.055 1107.68 415.63C1089.75 419.375 1071.5 422.311 1053.21 425.161C1034.93 428.011 1016.6 430.775 998.539 434.177C962.411 440.981 927.309 450.338 895.596 468.046C831.828 503.651 797.753 562.705 766.202 624.581C734.644 686.472 705.613 751.178 651.945 798.214C578.66 862.441 483.19 911.312 389.857 933.804C296.518 956.298 205.351 952.401 140.647 911.146C84.9226 875.616 40.1878 812.778 17.1901 744.216C-5.80796 675.654 -7.05721 601.402 24.1383 543.042C47.4338 499.459 83.0416 463.068 123.249 429.618C163.462 396.163 208.248 365.671 249.916 333.857C291.581 302.048 332.449 264.626 361.836 223.532C391.222 182.439 409.138 137.657 404.869 91.1343C401.334 52.6119 382.656 17.3579 365.595 -17.9561C348.525 -53.2861 333.069 -88.6818 335.884 -127.549C340.135 -186.242 388.319 -241.977 449.859 -268.08Z" stroke="url(#paint1_linear_362_749)" stroke-width="0.4"/>
</g>
<defs>
<filter id="filter0_n_362_749" x="0.0859375" y="-313.605" width="1402.72" height="1261.24" filterUnits="userSpaceOnUse" color-interpolation-filters="sRGB">
<feFlood flood-opacity="0" result="BackgroundImageFix"/>
<feBlend mode="normal" in="SourceGraphic" in2="BackgroundImageFix" result="shape"/>
<feTurbulence type="fractalNoise" baseFrequency="1.1111111640930176 1.1111111640930176" stitchTiles="stitch" numOctaves="3" result="noise" seed="8406" />
<feColorMatrix in="noise" type="luminanceToAlpha" result="alphaNoise" />
<feComponentTransfer in="alphaNoise" result="coloredNoise1">
<feFuncA type="discrete" tableValues="0 0 0 0 0 0 0 1 1 1 1 1 1 1 1 1 1 1 1 1 1 1 1 1 1 1 1 1 1 1 1 1 1 1 1 1 1 1 1 1 1 1 1 0 0 0 0 0 0 0 0 0 0 0 0 0 0 0 0 0 0 0 0 0 0 0 0 0 0 0 0 0 0 0 0 0 0 0 0 0 0 0 0 0 0 0 0 0 0 0 0 0 0 0 0 0 0 0 0 0 "/>
</feComponentTransfer>
<feComposite operator="in" in2="shape" in="coloredNoise1" result="noise1Clipped" />
<feFlood flood-color="rgba(225, 215, 243, 0.5)" result="color1Flood" />
<feComposite operator="in" in2="noise1Clipped" in="color1Flood" result="color1" />
<feMerge result="effect1_noise_362_749">
<feMergeNode in="shape" />
<feMergeNode in="color1" />
</feMerge>
</filter>
<linearGradient id="paint0_linear_362_749" x1="519.473" y1="2.6789" x2="517.033" y2="893.098" gradientUnits="userSpaceOnUse">
<stop stop-color="#F9F9F9" stop-opacity="0.3"/>
<stop offset="1" stop-color="#F9F9F9"/>
</linearGradient>
<linearGradient id="paint1_linear_362_749" x1="375.398" y1="-226.098" x2="47.9234" y2="862.243" gradientUnits="userSpaceOnUse">
<stop stop-color="#E1D7F3" stop-opacity="0"/>
<stop offset="0.297408" stop-color="#A68DCE"/>
<stop offset="0.648704" stop-color="#A68DCE" stop-opacity="0.5"/>
<stop offset="1" stop-color="#E1D7F3" stop-opacity="0"/>
</linearGradient>
</defs>
</svg>
